<svg width="67" height="24" viewBox="0 0 67 24" fill="none" xmlns="http://www.w3.org/2000/svg">
<path d="M2.368 21.944C3.41333 21.9013 4.13867 21.5813 4.544 20.984C4.94933 20.3867 5.152 19.4907 5.152 18.296L5.12 3.192H5.056L1.216 5.656L0.576 4.728L6.816 0.0879993H7.904L7.936 19.512C7.936 20.5787 7.904 21.3147 7.84 21.72L10.528 21.592V23H2.368V21.944ZM21.6083 23.512C18.6429 23.512 16.5416 22.3813 15.3043 20.12C14.0669 17.8587 13.4483 15.1173 13.4483 11.896C13.4483 9.95467 13.7363 8.088 14.3123 6.296C14.9096 4.48267 15.8269 3 17.0643 1.848C18.3016 0.674666 19.8589 0.0879993 21.7363 0.0879993C23.6776 0.0879993 25.2456 0.663999 26.4403 1.816C27.6349 2.94667 28.4883 4.38667 29.0003 6.136C29.5123 7.88533 29.7683 9.752 29.7683 11.736C29.7683 13.656 29.4803 15.512 28.9043 17.304C28.3496 19.096 27.4536 20.5787 26.2163 21.752C25.0003 22.9253 23.4643 23.512 21.6083 23.512ZM21.8003 22.264C23.4643 22.264 24.6589 21.3147 25.3843 19.416C26.1096 17.496 26.4723 15.16 26.4723 12.408C26.4723 9.336 26.0989 6.72267 25.3523 4.568C24.6269 2.392 23.4003 1.304 21.6723 1.304C19.9656 1.304 18.7176 2.27467 17.9283 4.216C17.1389 6.15733 16.7443 8.49333 16.7443 11.224C16.7443 14.0827 17.1176 16.6427 17.8643 18.904C18.6323 21.144 19.9443 22.264 21.8003 22.264ZM41.4833 23.512C38.5179 23.512 36.4166 22.3813 35.1793 20.12C33.9419 17.8587 33.3233 15.1173 33.3233 11.896C33.3233 9.95467 33.6113 8.088 34.1873 6.296C34.7846 4.48267 35.7019 3 36.9393 1.848C38.1766 0.674666 39.7339 0.0879993 41.6113 0.0879993C43.5526 0.0879993 45.1206 0.663999 46.3153 1.816C47.5099 2.94667 48.3633 4.38667 48.8753 6.136C49.3873 7.88533 49.6433 9.752 49.6433 11.736C49.6433 13.656 49.3553 15.512 48.7793 17.304C48.2246 19.096 47.3286 20.5787 46.0913 21.752C44.8753 22.9253 43.3393 23.512 41.4833 23.512ZM41.6753 22.264C43.3393 22.264 44.5339 21.3147 45.2593 19.416C45.9846 17.496 46.3473 15.16 46.3473 12.408C46.3473 9.336 45.9739 6.72267 45.2273 4.568C44.5019 2.392 43.2753 1.304 41.5473 1.304C39.8406 1.304 38.5926 2.27467 37.8033 4.216C37.0139 6.15733 36.6193 8.49333 36.6193 11.224C36.6193 14.0827 36.9926 16.6427 37.7393 18.904C38.5073 21.144 39.8193 22.264 41.6753 22.264ZM58.6063 13.784L52.5263 13.816V11.896L58.6063 11.928V5.624H60.6863V11.928L66.7663 11.96V13.752L60.6863 13.784V20.376H58.6063V13.784Z" fill="#10375C"/>
</svg>
