<svg width="72" height="26" viewBox="0 0 72 26" fill="none" xmlns="http://www.w3.org/2000/svg">
<path d="M7.128 25.512C5.848 25.512 4.70667 25.288 3.704 24.84C2.72267 24.392 1.96533 23.8373 1.432 23.176C0.92 22.4933 0.664 21.8213 0.664 21.16C0.664 20.648 0.802667 20.232 1.08 19.912C1.35733 19.5707 1.74133 19.4 2.232 19.4C2.72267 19.4 3.07467 19.56 3.288 19.88C3.52267 20.1787 3.64 20.4987 3.64 20.84C3.64 21.2027 3.52267 21.6187 3.288 22.088C3.416 22.792 3.864 23.336 4.632 23.72C5.4 24.0827 6.21067 24.264 7.064 24.264C8.57867 24.264 9.72 23.7413 10.488 22.696C11.2773 21.6507 11.672 20.3707 11.672 18.856C11.672 14.6533 10.0187 12.552 6.712 12.552C6.11467 12.552 5.38933 12.6587 4.536 12.872C3.68267 13.0853 3 13.352 2.488 13.672L1.592 12.84L1.528 2.6H9.816C11.0107 2.6 11.8427 2.44 12.312 2.12C12.7813 1.8 13.016 1.26667 13.016 0.519999H13.88L13.688 4.744L3 4.968V12.008C3.59733 11.752 4.30133 11.5387 5.112 11.368C5.944 11.1973 6.78667 11.112 7.64 11.112C9.304 11.112 10.68 11.4533 11.768 12.136C12.8773 12.8187 13.688 13.704 14.2 14.792C14.7333 15.88 15 17.0427 15 18.28C15 19.7947 14.6373 21.1067 13.912 22.216C13.208 23.304 12.2587 24.1253 11.064 24.68C9.86933 25.2347 8.55733 25.512 7.128 25.512ZM26.3583 25.512C23.3929 25.512 21.2916 24.3813 20.0543 22.12C18.8169 19.8587 18.1983 17.1173 18.1983 13.896C18.1983 11.9547 18.4863 10.088 19.0623 8.296C19.6596 6.48267 20.5769 5 21.8143 3.848C23.0516 2.67467 24.6089 2.088 26.4863 2.088C28.4276 2.088 29.9956 2.664 31.1903 3.816C32.3849 4.94667 33.2383 6.38667 33.7503 8.136C34.2623 9.88533 34.5183 11.752 34.5183 13.736C34.5183 15.656 34.2303 17.512 33.6543 19.304C33.0996 21.096 32.2036 22.5787 30.9663 23.752C29.7503 24.9253 28.2143 25.512 26.3583 25.512ZM26.5503 24.264C28.2143 24.264 29.4089 23.3147 30.1343 21.416C30.8596 19.496 31.2223 17.16 31.2223 14.408C31.2223 11.336 30.8489 8.72267 30.1023 6.568C29.3769 4.392 28.1503 3.304 26.4223 3.304C24.7156 3.304 23.4676 4.27467 22.6783 6.216C21.8889 8.15733 21.4943 10.4933 21.4943 13.224C21.4943 16.0827 21.8676 18.6427 22.6143 20.904C23.3823 23.144 24.6943 24.264 26.5503 24.264ZM46.2333 25.512C43.2679 25.512 41.1666 24.3813 39.9293 22.12C38.6919 19.8587 38.0733 17.1173 38.0733 13.896C38.0733 11.9547 38.3613 10.088 38.9373 8.296C39.5346 6.48267 40.4519 5 41.6893 3.848C42.9266 2.67467 44.4839 2.088 46.3613 2.088C48.3026 2.088 49.8706 2.664 51.0653 3.816C52.2599 4.94667 53.1133 6.38667 53.6253 8.136C54.1373 9.88533 54.3933 11.752 54.3933 13.736C54.3933 15.656 54.1053 17.512 53.5293 19.304C52.9746 21.096 52.0786 22.5787 50.8413 23.752C49.6253 24.9253 48.0893 25.512 46.2333 25.512ZM46.4253 24.264C48.0893 24.264 49.2839 23.3147 50.0093 21.416C50.7346 19.496 51.0973 17.16 51.0973 14.408C51.0973 11.336 50.7239 8.72267 49.9773 6.568C49.2519 4.392 48.0253 3.304 46.2973 3.304C44.5906 3.304 43.3426 4.27467 42.5533 6.216C41.7639 8.15733 41.3693 10.4933 41.3693 13.224C41.3693 16.0827 41.7426 18.6427 42.4893 20.904C43.2573 23.144 44.5693 24.264 46.4253 24.264ZM63.3563 15.784L57.2763 15.816V13.896L63.3563 13.928V7.624H65.4363V13.928L71.5163 13.96V15.752L65.4363 15.784V22.376H63.3563V15.784Z" fill="#10375C"/>
</svg>
