<svg width="53" height="24" viewBox="0 0 53 24" fill="none" xmlns="http://www.w3.org/2000/svg">
<path d="M8.44 23.512C5.70933 23.512 3.74667 22.5733 2.552 20.696C1.37867 18.7973 0.792 16.056 0.792 12.472C0.792 10.8293 1.03733 9.06933 1.528 7.192C2.01867 5.29333 2.91467 3.64 4.216 2.232C5.51733 0.802666 7.27733 0.0879993 9.496 0.0879993C10.6907 0.0879993 11.7147 0.311999 12.568 0.759998C13.4213 1.18667 14.0613 1.72 14.488 2.36C14.936 2.97867 15.16 3.576 15.16 4.152C15.16 4.62133 15.0427 5.016 14.808 5.336C14.5733 5.63467 14.232 5.79467 13.784 5.816C13.2933 5.83733 12.9307 5.70933 12.696 5.432C12.4613 5.13333 12.344 4.81333 12.344 4.472C12.344 4.024 12.472 3.576 12.728 3.128C12.6 2.68 12.2373 2.264 11.64 1.88C11.064 1.47467 10.3707 1.272 9.56 1.272C7.42667 1.272 5.95467 2.392 5.144 4.632C4.33333 6.85067 3.88533 9.208 3.8 11.704C4.376 10.9147 5.12267 10.2747 6.04 9.784C6.95733 9.272 8.00267 9.016 9.176 9.016C10.776 9.016 12.0773 9.368 13.08 10.072C14.104 10.776 14.8293 11.672 15.256 12.76C15.704 13.848 15.928 14.9893 15.928 16.184C15.928 17.5067 15.5973 18.7333 14.936 19.864C14.296 20.9733 13.4 21.8587 12.248 22.52C11.1173 23.1813 9.848 23.512 8.44 23.512ZM8.504 22.264C9.912 22.264 10.9573 21.752 11.64 20.728C12.344 19.704 12.696 18.424 12.696 16.888C12.696 15.2453 12.3867 13.7627 11.768 12.44C11.1707 11.1173 10.0827 10.456 8.504 10.456C7.52267 10.456 6.57333 10.808 5.656 11.512C4.76 12.216 4.152 13.0373 3.832 13.976C3.96 16.3653 4.38667 18.3493 5.112 19.928C5.83733 21.4853 6.968 22.264 8.504 22.264ZM27.452 23.512C24.4867 23.512 22.3853 22.3813 21.148 20.12C19.9107 17.8587 19.292 15.1173 19.292 11.896C19.292 9.95467 19.58 8.088 20.156 6.296C20.7533 4.48267 21.6707 3 22.908 1.848C24.1453 0.674666 25.7027 0.0879993 27.58 0.0879993C29.5213 0.0879993 31.0893 0.663999 32.284 1.816C33.4787 2.94667 34.332 4.38667 34.844 6.136C35.356 7.88533 35.612 9.752 35.612 11.736C35.612 13.656 35.324 15.512 34.748 17.304C34.1933 19.096 33.2973 20.5787 32.06 21.752C30.844 22.9253 29.308 23.512 27.452 23.512ZM27.644 22.264C29.308 22.264 30.5027 21.3147 31.228 19.416C31.9533 17.496 32.316 15.16 32.316 12.408C32.316 9.336 31.9427 6.72267 31.196 4.568C30.4707 2.392 29.244 1.304 27.516 1.304C25.8093 1.304 24.5613 2.27467 23.772 4.216C22.9827 6.15733 22.588 8.49333 22.588 11.224C22.588 14.0827 22.9613 16.6427 23.708 18.904C24.476 21.144 25.788 22.264 27.644 22.264ZM44.575 13.784L38.495 13.816V11.896L44.575 11.928V5.624H46.655V11.928L52.735 11.96V13.752L46.655 13.784V20.376H44.575V13.784Z" fill="#10375C"/>
</svg>
