<svg width="40" height="40" viewBox="0 0 40 40" fill="none" xmlns="http://www.w3.org/2000/svg">
<g filter="url(#filter0_dd)">
<path d="M32.25 7.5C34.3179 7.5 36 5.81787 36 3.75C36 1.68213 34.3179 0 32.25 0C30.1821 0 28.5 1.68213 28.5 3.75C28.5 5.81787 30.1821 7.5 32.25 7.5ZM32.25 2.5C32.9392 2.5 33.5 3.06079 33.5 3.75C33.5 4.43921 32.9392 5 32.25 5C31.5608 5 31 4.43921 31 3.75C31 3.06079 31.5608 2.5 32.25 2.5ZM7.75 7.5C9.81787 7.5 11.5 5.81787 11.5 3.75C11.5 1.68213 9.81787 0 7.75 0C5.68213 0 4 1.68213 4 3.75C4 5.81787 5.68213 7.5 7.75 7.5ZM7.75 2.5C8.43921 2.5 9 3.06079 9 3.75C9 4.43921 8.43921 5 7.75 5C7.06079 5 6.5 4.43921 6.5 3.75C6.5 3.06079 7.06079 2.5 7.75 2.5ZM32.2695 8.6875C32.2634 8.6875 32.2573 8.6875 32.2512 8.6875C29.6638 8.6875 28.6829 10.5713 28.0647 12.4153C27.8545 13.0425 27.3982 14.4128 27.0986 15.3125H25.625V12.4375C25.625 10.3696 23.9429 8.6875 21.875 8.6875H18.125C16.0571 8.6875 14.375 10.3696 14.375 12.4375V15.3125H12.9014C12.6018 14.4128 12.1455 13.0425 11.9353 12.4153C11.3169 10.5713 10.3364 8.6875 7.74878 8.6875C7.74268 8.6875 7.73633 8.6875 7.73022 8.6875C5.67334 8.69458 4 10.377 4 12.4375V19.25C4 20.8796 5.04517 22.269 6.5 22.7849V22.8125C6.53223 22.8125 6.56372 22.8149 6.59546 22.8174C6.73462 22.8625 6.8772 22.8999 7.02295 22.9287C7.45142 23.127 7.75 23.5601 7.75 24.0625V32H10.25V24.0625C10.25 23.6936 10.1956 23.3372 10.0957 23H11.5625C12.2517 23 12.8125 23.5608 12.8125 24.25V32H15.3125V24.25C15.3125 22.1821 13.6304 20.5 11.5625 20.5H7.75C7.71777 20.5 7.68628 20.4976 7.65454 20.4951C7.51538 20.45 7.3728 20.4126 7.22705 20.3838C6.79858 20.1855 6.5 19.7524 6.5 19.25V12.4375C6.5 11.7507 7.05591 11.1899 7.73901 11.1875C8.30396 11.1855 8.8855 11.1836 9.5647 13.2097C9.8894 14.1782 10.8047 16.9294 10.814 16.957L11.0984 17.8125H28.9016L29.186 16.957C29.1953 16.9294 30.1106 14.1782 30.4353 13.2097C31.1143 11.1836 31.696 11.1863 32.261 11.1875C32.9441 11.1899 33.5 11.7507 33.5 12.4375V19.25C33.5 19.7524 33.2014 20.1855 32.7729 20.3838C32.6272 20.4126 32.4846 20.45 32.3455 20.4951C32.3137 20.4976 32.2822 20.5 32.25 20.5H28.5C26.4321 20.5 24.75 22.1821 24.75 24.25V32H27.25V24.25C27.25 23.5608 27.8108 23 28.5 23H29.9043C29.8044 23.3372 29.75 23.6936 29.75 24.0625V32H32.25V24.0625C32.25 23.5601 32.5486 23.127 32.9771 22.9287C33.1228 22.8999 33.2654 22.8625 33.4045 22.8174C33.4363 22.8149 33.4678 22.8125 33.5 22.8125V22.7849C34.9548 22.269 36 20.8796 36 19.25V12.4375C36 10.377 34.3267 8.69458 32.2695 8.6875ZM16.875 12.4375C16.875 11.7483 17.4358 11.1875 18.125 11.1875H21.875C22.5642 11.1875 23.125 11.7483 23.125 12.4375V15.3125H16.875V12.4375ZM20 7.5C22.0679 7.5 23.75 5.81787 23.75 3.75C23.75 1.68213 22.0679 0 20 0C17.9321 0 16.25 1.68213 16.25 3.75C16.25 5.81787 17.9321 7.5 20 7.5ZM20 2.5C20.6892 2.5 21.25 3.06079 21.25 3.75C21.25 4.43921 20.6892 5 20 5C19.3108 5 18.75 4.43921 18.75 3.75C18.75 3.06079 19.3108 2.5 20 2.5Z" fill="#10375C"/>
</g>
<defs>
<filter id="filter0_dd" x="0" y="0" width="40" height="40" filterUnits="userSpaceOnUse" color-interpolation-filters="sRGB">
<feFlood flood-opacity="0" result="BackgroundImageFix"/>
<feColorMatrix in="SourceAlpha" type="matrix" values="0 0 0 0 0 0 0 0 0 0 0 0 0 0 0 0 0 0 127 0"/>
<feOffset dy="4"/>
<feGaussianBlur stdDeviation="2"/>
<feColorMatrix type="matrix" values="0 0 0 0 0 0 0 0 0 0 0 0 0 0 0 0 0 0 0.25 0"/>
<feBlend mode="normal" in2="BackgroundImageFix" result="effect1_dropShadow"/>
<feColorMatrix in="SourceAlpha" type="matrix" values="0 0 0 0 0 0 0 0 0 0 0 0 0 0 0 0 0 0 127 0"/>
<feOffset dy="4"/>
<feGaussianBlur stdDeviation="2"/>
<feColorMatrix type="matrix" values="0 0 0 0 0 0 0 0 0 0 0 0 0 0 0 0 0 0 0.25 0"/>
<feBlend mode="normal" in2="effect1_dropShadow" result="effect2_dropShadow"/>
<feBlend mode="normal" in="SourceGraphic" in2="effect2_dropShadow" result="shape"/>
</filter>
</defs>
</svg>
